<?xml version="1.0" encoding="UTF-8"?>
<svg width="223px" height="21px" viewBox="0 0 223 21" version="1.1" xmlns="http://www.w3.org/2000/svg" xmlns:xlink="http://www.w3.org/1999/xlink">
    <!-- Generator: Sketch 55.2 (78181) - https://sketchapp.com -->
    <title>developers.logotype</title>
    <desc>Created with Sketch.</desc>
    <g id="Main" stroke="none" stroke-width="1" fill="none" fill-rule="evenodd">
        <g id="Cards-d-2---expire-soon" transform="translate(-603.000000, -21.000000)">
            <g id="Header">
                <g id="developers.logotype" transform="translate(603.000000, 16.000000)">
                    <path d="M118.65,21 L118.65,5.468 L120.784,5.468 L120.784,11.232 L120.696,12.156 L120.74,12.156 C121.048002,11.5106634 121.568663,10.9240026 122.302,10.396 C123.035337,9.86799736 123.907995,9.604 124.92,9.604 C127.457346,9.604 128.726,11.0266524 128.726,13.872 L128.726,21 L126.592,21 L126.592,14.356 C126.592,13.4613289 126.449001,12.7720024 126.163,12.288 C125.876999,11.8039976 125.323337,11.562 124.502,11.562 C123.431328,11.562 122.544004,11.9543294 121.84,12.739 C121.135996,13.5236706 120.784,14.5173273 120.784,15.72 L120.784,21 L118.65,21 Z M144.754,21 L144.754,9.868 L146.822,9.868 L146.822,11.386 L146.756,12.222 L146.8,12.222 C147.078668,11.5326632 147.584663,10.9240026 148.318,10.396 C149.051337,9.86799736 149.835996,9.604 150.672,9.604 C152.505343,9.604 153.612665,10.4473249 153.994,12.134 L154.038,12.134 C154.360668,11.4446632 154.884996,10.8506692 155.611,10.352 C156.337004,9.85333084 157.132662,9.604 157.998,9.604 C159.25934,9.604 160.186997,9.95599648 160.781,10.66 C161.375003,11.3640035 161.672,12.4346595 161.672,13.872 L161.672,21 L159.538,21 L159.538,14.334 C159.538,13.4393289 159.402335,12.7500024 159.131,12.266 C158.859665,11.7819976 158.34267,11.54 157.58,11.54 C156.597328,11.54 155.80167,11.9689957 155.193,12.827 C154.58433,13.6850043 154.28,14.678661 154.28,15.808 L154.28,21 L152.146,21 L152.146,14.334 C152.146,13.4539956 152.017668,12.7683358 151.761,12.277 C151.504332,11.7856642 150.99467,11.54 150.232,11.54 C149.234662,11.54 148.428003,11.9726623 147.812,12.838 C147.195997,13.7033377 146.888,14.6933278 146.888,15.808 L146.888,21 L144.754,21 Z M163.636,15.434 C163.636,13.6886579 164.163995,12.280672 165.22,11.21 C166.276005,10.139328 167.610659,9.604 169.224,9.604 C170.734674,9.604 171.915329,10.098995 172.766,11.089 C173.616671,12.0790049 174.042,13.3219925 174.042,14.818 C174.042,15.0086676 174.012667,15.3093313 173.954,15.72 L165.858,15.72 C165.916667,16.8786725 166.308996,17.7843301 167.035,18.437 C167.761004,19.0896699 168.644661,19.416 169.686,19.416 C170.903339,19.416 171.995995,18.9833377 172.964,18.118 L173.866,19.68 C173.337997,20.1640024 172.681671,20.5489986 171.897,20.835 C171.112329,21.1210014 170.331337,21.264 169.554,21.264 C167.823325,21.264 166.404339,20.7103389 165.297,19.603 C164.189661,18.4956611 163.636,17.1060084 163.636,15.434 Z M165.924,14.18 L171.886,14.18 C171.856667,13.2559954 171.589003,12.5373359 171.083,12.024 C170.576997,11.5106641 169.94267,11.254 169.18,11.254 C168.343996,11.254 167.629003,11.5143307 167.035,12.035 C166.440997,12.5556693 166.070667,13.2706621 165.924,14.18 Z M176.116,21 L176.116,5.468 L178.25,5.468 L178.25,10.616 L178.162,11.562 L178.206,11.562 C178.543335,10.9606637 179.03833,10.4840018 179.691,10.132 C180.34367,9.77999824 181.05133,9.604 181.814,9.604 C183.310007,9.604 184.497996,10.139328 185.378,11.21 C186.258004,12.280672 186.698,13.6886579 186.698,15.434 C186.698,17.1940088 186.228671,18.6056613 185.29,19.669 C184.351329,20.7323386 183.134007,21.264 181.638,21.264 C180.904663,21.264 180.22267,21.0843351 179.592,20.725 C178.96133,20.3656649 178.462669,19.8780031 178.096,19.262 L178.052,19.262 C178.096,19.4820011 178.118,19.760665 178.118,20.098 L178.118,21 L176.116,21 Z M178.184,15.478 C178.184,16.548672 178.458997,17.4726628 179.009,18.25 C179.559003,19.0273372 180.332662,19.416 181.33,19.416 C182.239338,19.416 183.001997,19.0603369 183.618,18.349 C184.234003,17.6376631 184.542,16.6733394 184.542,15.456 C184.542,14.2533273 184.252336,13.2890036 183.673,12.563 C183.093664,11.8369964 182.334671,11.474 181.396,11.474 C180.486662,11.474 179.724003,11.81133 179.108,12.486 C178.491997,13.16067 178.184,14.1579934 178.184,15.478 Z M187.914,17.964 C187.914,17.1426626 188.141331,16.4533361 188.596,15.896 C189.050669,15.3386639 189.655663,14.9390012 190.411,14.697 C191.166337,14.4549988 191.866663,14.2900004 192.512,14.202 C193.157337,14.1139996 193.83933,14.07 194.558,14.07 L195.13,14.07 L195.13,13.85 C195.13,12.2219919 194.316008,11.408 192.688,11.408 C191.617328,11.408 190.576005,11.7673297 189.564,12.486 L188.706,10.924 C189.160669,10.5426648 189.776663,10.2273346 190.554,9.978 C191.331337,9.72866542 192.10133,9.604 192.864,9.604 C194.272007,9.604 195.35733,9.97799626 196.12,10.726 C196.88267,11.4740037 197.264,12.551993 197.264,13.96 L197.264,21 L195.262,21 L195.262,19.878 L195.328,18.998 L195.284,18.998 C194.946665,19.6580033 194.45167,20.2006645 193.799,20.626 C193.14633,21.0513355 192.424004,21.264 191.632,21.264 C190.619995,21.264 189.747337,20.9633363 189.014,20.362 C188.280663,19.7606637 187.914,18.9613383 187.914,17.964 Z M190.048,17.788 C190.048,18.2720024 190.231332,18.6899982 190.598,19.042 C190.964669,19.3940018 191.477997,19.57 192.138,19.57 C193.018004,19.57 193.736664,19.203337 194.294,18.47 C194.851336,17.736663 195.13,16.9226711 195.13,16.028 L195.13,15.61 L194.58,15.61 C191.558652,15.61 190.048,16.3359927 190.048,17.788 Z M199.932,21 L199.932,9.868 L202,9.868 L202,11.386 L201.934,12.222 L201.978,12.222 C202.256668,11.5913302 202.758996,10.9973361 203.485,10.44 C204.211004,9.88266388 205.116661,9.604 206.202,9.604 C208.739346,9.604 210.008,11.0266524 210.008,13.872 L210.008,21 L207.874,21 L207.874,14.356 C207.874,13.4613289 207.731001,12.7720024 207.445,12.288 C207.158999,11.8039976 206.605337,11.562 205.784,11.562 C204.713328,11.562 203.826004,11.9543294 203.122,12.739 C202.417996,13.5236706 202.066,14.4953275 202.066,15.654 L202.066,21 L199.932,21 Z M212.698,21 L212.698,5.468 L214.832,5.468 L214.832,13.96 L216.416,13.96 L219.43,9.868 L221.85,9.868 L218.154,14.774 L218.154,14.818 L222.268,21 L219.782,21 L216.46,15.786 L214.832,15.786 L214.832,21 L212.698,21 Z" id="homebank" fill="#FFFFFF"></path>
                    <path d="M130.924,15.412 C130.924,13.7546584 131.503328,12.3723389 132.662,11.265 C133.820672,10.1576611 135.235992,9.604 136.908,9.604 C138.594675,9.604 140.017328,10.1539945 141.176,11.254 C142.334672,12.3540055 142.914,13.7399916 142.914,15.412 C142.914,17.0840084 142.334672,18.4773278 141.176,19.592 C140.017328,20.7066722 138.602008,21.264 136.93,21.264 C135.257992,21.264 133.839006,20.7066722 132.673,19.592 C131.506994,18.4773278 130.924,17.0840084 130.924,15.412 Z M133.102,15.412 C133.102,16.5706725 133.47233,17.5276629 134.213,18.283 C134.95367,19.0383371 135.859328,19.416 136.93,19.416 C137.986005,19.416 138.887996,19.0346705 139.636,18.272 C140.384004,17.5093295 140.758,16.5560057 140.758,15.412 C140.758,14.2679943 140.384004,13.3220037 139.636,12.574 C138.887996,11.8259963 137.986005,11.452 136.93,11.452 C135.859328,11.452 134.95367,11.8259963 134.213,12.574 C133.47233,13.3220037 133.102,14.2679943 133.102,15.412 Z" id="o" fill="#00A9FF"></path>
                    <path d="M0.968,15.434 C0.968,11.892 3.058,9.604 6.006,9.604 C7.414,9.604 8.756,10.242 9.46,11.43 L9.504,11.43 C9.504,11.43 9.46,11.1 9.46,10.682 L9.46,5.468 L11.572,5.468 L11.572,21 L9.548,21 L9.548,19.878 C9.548,19.438 9.614,19.13 9.614,19.13 L9.57,19.13 C8.932,20.34 7.634,21.264 5.874,21.264 C2.882,21.264 0.968,18.888 0.968,15.434 Z M3.146,15.434 C3.146,17.854 4.444,19.416 6.292,19.416 C7.942,19.416 9.504,18.228 9.504,15.412 C9.504,13.41 8.47,11.474 6.336,11.474 C4.598,11.474 3.146,12.904 3.146,15.434 Z M14.146,15.434 C14.146,11.892 16.566,9.604 19.734,9.604 C22.88,9.604 24.552,11.958 24.552,14.818 C24.552,15.104 24.508,15.412 24.464,15.72 L16.368,15.72 C16.478,18.118 18.194,19.416 20.196,19.416 C21.384,19.416 22.594,18.91 23.474,18.118 L24.376,19.68 C23.298,20.67 21.604,21.264 20.064,21.264 C16.566,21.264 14.146,18.734 14.146,15.434 Z M16.434,14.18 L22.396,14.18 C22.33,12.266 21.142,11.254 19.69,11.254 C18.04,11.254 16.742,12.332 16.434,14.18 Z M29.832,21 L25.652,9.868 L27.918,9.868 L30.624,17.392 C30.822,18.008 31.02,18.91 31.02,18.91 L31.064,18.91 C31.064,18.91 31.24,18.008 31.438,17.392 L34.144,9.868 L36.388,9.868 L32.274,21 L29.832,21 Z M37.466,15.434 C37.466,11.892 39.886,9.604 43.054,9.604 C46.2,9.604 47.872,11.958 47.872,14.818 C47.872,15.104 47.828,15.412 47.784,15.72 L39.688,15.72 C39.798,18.118 41.514,19.416 43.516,19.416 C44.704,19.416 45.914,18.91 46.794,18.118 L47.696,19.68 C46.618,20.67 44.924,21.264 43.384,21.264 C39.886,21.264 37.466,18.734 37.466,15.434 Z M39.754,14.18 L45.716,14.18 C45.65,12.266 44.462,11.254 43.01,11.254 C41.36,11.254 40.062,12.332 39.754,14.18 Z M50.446,17.942 L50.446,5.468 L52.558,5.468 L52.558,17.59 C52.558,18.91 53.108,19.174 53.768,19.174 C53.856,19.174 54.01,19.174 54.142,19.152 L54.142,21.044 C53.988,21.066 53.746,21.11 53.438,21.11 C52.206,21.11 50.446,20.758 50.446,17.942 Z M55.594,15.412 C55.594,12.046 58.278,9.604 61.578,9.604 C64.9,9.604 67.584,12.046 67.584,15.412 C67.584,18.8 64.9,21.264 61.6,21.264 C58.278,21.264 55.594,18.8 55.594,15.412 Z M57.772,15.412 C57.772,17.744 59.488,19.416 61.6,19.416 C63.69,19.416 65.428,17.744 65.428,15.412 C65.428,13.102 63.69,11.452 61.6,11.452 C59.488,11.452 57.772,13.102 57.772,15.412 Z M70.158,25.4 L70.158,9.868 L72.138,9.868 L72.138,10.858 C72.138,11.32 72.072,11.694 72.072,11.694 L72.116,11.694 C72.82,10.352 74.228,9.604 75.856,9.604 C78.87,9.604 80.74,11.98 80.74,15.434 C80.74,18.976 78.628,21.264 75.702,21.264 C74.294,21.264 73.018,20.56 72.248,19.372 L72.204,19.372 C72.204,19.372 72.292,19.768 72.292,20.34 L72.292,25.4 L70.158,25.4 Z M72.226,15.478 C72.226,17.458 73.326,19.416 75.372,19.416 C77.132,19.416 78.584,17.986 78.584,15.456 C78.584,13.036 77.286,11.474 75.438,11.474 C73.766,11.474 72.226,12.662 72.226,15.478 Z M82.654,15.434 C82.654,11.892 85.074,9.604 88.242,9.604 C91.388,9.604 93.06,11.958 93.06,14.818 C93.06,15.104 93.016,15.412 92.972,15.72 L84.876,15.72 C84.986,18.118 86.702,19.416 88.704,19.416 C89.892,19.416 91.102,18.91 91.982,18.118 L92.884,19.68 C91.806,20.67 90.112,21.264 88.572,21.264 C85.074,21.264 82.654,18.734 82.654,15.434 Z M84.942,14.18 L90.904,14.18 C90.838,12.266 89.65,11.254 88.198,11.254 C86.548,11.254 85.25,12.332 84.942,14.18 Z M95.634,21 L95.634,9.868 L97.702,9.868 L97.702,11.87 C97.702,12.332 97.636,12.684 97.636,12.684 L97.68,12.684 C98.208,11.078 99.506,9.736 101.222,9.736 C101.42,9.736 101.618,9.758 101.794,9.78 L101.794,11.892 C101.706,11.87 101.398,11.848 101.178,11.848 C98.78,11.848 97.768,14.224 97.768,16.38 L97.768,21 L95.634,21 Z M102.96,19.636 L103.972,18.184 C104.808,18.998 106.084,19.482 107.25,19.482 C108.372,19.482 109.142,18.954 109.142,18.03 C109.142,15.896 103.422,16.468 103.422,12.816 C103.422,10.704 105.248,9.604 107.426,9.604 C108.702,9.604 110.066,9.956 111.034,10.836 L110.176,12.376 C109.516,11.76 108.35,11.386 107.36,11.386 C106.282,11.386 105.468,11.826 105.468,12.772 C105.468,14.95 111.21,14.312 111.21,17.986 C111.21,19.878 109.582,21.264 107.206,21.264 C105.71,21.264 104.06,20.758 102.96,19.636 Z M113.63,21 L113.63,18.69 L115.918,18.69 L115.918,21 L113.63,21 Z" id="developers." fill="#FFFFFF" fill-rule="nonzero"></path>
                </g>
            </g>
        </g>
    </g>
</svg>